<svg id="visual" viewBox="0 0 960 540" width="960" height="540" xmlns="http://www.w3.org/2000/svg" xmlns:xlink="http://www.w3.org/1999/xlink" version="1.1"><rect x="0" y="0" width="960" height="540" fill="#002233"></rect><path d="M0 195L10 195.5C20 196 40 197 60 195C80 193 100 188 120 189.5C140 191 160 199 180 200.2C200 201.3 220 195.7 240 190.7C260 185.7 280 181.3 300 182.7C320 184 340 191 360 193.8C380 196.7 400 195.3 420 197.7C440 200 460 206 480 202.8C500 199.7 520 187.3 540 184.2C560 181 580 187 600 191C620 195 640 197 660 198C680 199 700 199 720 197.8C740 196.7 760 194.3 780 196C800 197.7 820 203.3 840 203.8C860 204.3 880 199.7 900 198.5C920 197.3 940 199.7 950 200.8L960 202L960 0L950 0C940 0 920 0 900 0C880 0 860 0 840 0C820 0 800 0 780 0C760 0 740 0 720 0C700 0 680 0 660 0C640 0 620 0 600 0C580 0 560 0 540 0C520 0 500 0 480 0C460 0 440 0 420 0C400 0 380 0 360 0C340 0 320 0 300 0C280 0 260 0 240 0C220 0 200 0 180 0C160 0 140 0 120 0C100 0 80 0 60 0C40 0 20 0 10 0L0 0Z" fill="#6dcdc3"></path><path d="M0 109L10 114C20 119 40 129 60 133.7C80 138.3 100 137.7 120 132.3C140 127 160 117 180 118.8C200 120.7 220 134.3 240 141C260 147.7 280 147.3 300 144.8C320 142.3 340 137.7 360 137.3C380 137 400 141 420 136.5C440 132 460 119 480 113.8C500 108.7 520 111.3 540 115C560 118.7 580 123.3 600 127C620 130.7 640 133.3 660 134C680 134.7 700 133.3 720 133.3C740 133.3 760 134.7 780 131.3C800 128 820 120 840 121.5C860 123 880 134 900 138.8C920 143.7 940 142.3 950 141.7L960 141L960 0L950 0C940 0 920 0 900 0C880 0 860 0 840 0C820 0 800 0 780 0C760 0 740 0 720 0C700 0 680 0 660 0C640 0 620 0 600 0C580 0 560 0 540 0C520 0 500 0 480 0C460 0 440 0 420 0C400 0 380 0 360 0C340 0 320 0 300 0C280 0 260 0 240 0C220 0 200 0 180 0C160 0 140 0 120 0C100 0 80 0 60 0C40 0 20 0 10 0L0 0Z" fill="#bae6e1"></path><path d="M0 47L10 50.2C20 53.3 40 59.7 60 65.7C80 71.7 100 77.3 120 76C140 74.7 160 66.3 180 61.7C200 57 220 56 240 57.2C260 58.3 280 61.7 300 60.2C320 58.7 340 52.3 360 51.2C380 50 400 54 420 58.5C440 63 460 68 480 71.8C500 75.7 520 78.3 540 74C560 69.7 580 58.3 600 57.2C620 56 640 65 660 68.2C680 71.3 700 68.7 720 66C740 63.3 760 60.7 780 58.3C800 56 820 54 840 58C860 62 880 72 900 71.5C920 71 940 60 950 54.5L960 49L960 0L950 0C940 0 920 0 900 0C880 0 860 0 840 0C820 0 800 0 780 0C760 0 740 0 720 0C700 0 680 0 660 0C640 0 620 0 600 0C580 0 560 0 540 0C520 0 500 0 480 0C460 0 440 0 420 0C400 0 380 0 360 0C340 0 320 0 300 0C280 0 260 0 240 0C220 0 200 0 180 0C160 0 140 0 120 0C100 0 80 0 60 0C40 0 20 0 10 0L0 0Z" fill="#ffffff"></path></svg>