<svg id="visual" viewBox="0 0 960 540" width="960" height="540" xmlns="http://www.w3.org/2000/svg" xmlns:xlink="http://www.w3.org/1999/xlink" version="1.1"><rect x="0" y="0" width="960" height="540" fill="#C62368"></rect><path d="M0 221L53.3 211.7C106.7 202.3 213.3 183.7 320 178C426.7 172.3 533.3 179.7 640 184.2C746.7 188.7 853.3 190.3 906.7 191.2L960 192L960 0L906.7 0C853.3 0 746.7 0 640 0C533.3 0 426.7 0 320 0C213.3 0 106.7 0 53.3 0L0 0Z" fill="#fa7268"></path><path d="M0 84L53.3 83.2C106.7 82.3 213.3 80.7 320 80.7C426.7 80.7 533.3 82.3 640 80.7C746.7 79 853.3 74 906.7 71.5L960 69L960 0L906.7 0C853.3 0 746.7 0 640 0C533.3 0 426.7 0 320 0C213.3 0 106.7 0 53.3 0L0 0Z" fill="#012333"></path></svg>